<svg width="44" height="44" viewBox="0 0 44 44" fill="none" xmlns="http://www.w3.org/2000/svg">
<path d="M9.16666 12.8335V32.8335C9.16666 33.9381 10.0621 34.8335 11.1667 34.8335H18.3333M34.8333 12.8335V19.2502" stroke="black" stroke-linejoin="round"/>
<path d="M3.66666 16.4998L22 3.6665L40.3333 16.4998" stroke="black" stroke-linejoin="round"/>
<path d="M30.1271 23.6718C30.4543 22.6647 31.8791 22.6647 32.2063 23.6718L33.6209 28.0254C33.7672 28.4758 34.1869 28.7808 34.6605 28.7808H39.2381C40.2971 28.7808 40.7373 30.1358 39.8806 30.7582L36.1772 33.4489C35.7941 33.7273 35.6338 34.2207 35.7801 34.671L37.1947 39.0247C37.5219 40.0318 36.3693 40.8692 35.5126 40.2468L31.8092 37.5561C31.4261 37.2778 30.9073 37.2778 30.5242 37.5561L26.8207 40.2468C25.9641 40.8692 24.8114 40.0318 25.1386 39.0247L26.5532 34.671C26.6995 34.2207 26.5392 33.7273 26.1561 33.4489L22.4527 30.7582C21.596 30.1358 22.0363 28.7808 23.0952 28.7808H27.6729C28.1464 28.7808 28.5661 28.4758 28.7125 28.0254L30.1271 23.6718Z" stroke="black" stroke-linejoin="round"/>
</svg>
